<?xml version="1.0" encoding="UTF-8" standalone="no"?>
<!-- Created with Inkscape (http://www.inkscape.org/) -->

<svg
   xmlns:dc="http://purl.org/dc/elements/1.1/"
   xmlns:cc="http://creativecommons.org/ns#"
   xmlns:rdf="http://www.w3.org/1999/02/22-rdf-syntax-ns#"
   xmlns:svg="http://www.w3.org/2000/svg"
   xmlns="http://www.w3.org/2000/svg"
   xmlns:sodipodi="http://sodipodi.sourceforge.net/DTD/sodipodi-0.dtd"
   xmlns:inkscape="http://www.inkscape.org/namespaces/inkscape"
   width="35.546848mm"
   height="35.546848mm"
   viewBox="0 0 35.546849 35.546848"
   version="1.1"
   id="svg8"
   inkscape:version="0.92.3 (2405546, 2018-03-11)"
   sodipodi:docname="sol.svg">
  <defs
     id="defs2" />
  <sodipodi:namedview
     id="base"
     pagecolor="#ffffff"
     bordercolor="#666666"
     borderopacity="1.0"
     inkscape:pageopacity="0.0"
     inkscape:pageshadow="2"
     inkscape:zoom="3.959798"
     inkscape:cx="60.141388"
     inkscape:cy="57.955011"
     inkscape:document-units="mm"
     inkscape:current-layer="layer1"
     showgrid="false"
     fit-margin-left="0"
     fit-margin-top="0"
     fit-margin-right="0"
     fit-margin-bottom="0"
     inkscape:window-width="3200"
     inkscape:window-height="1675"
     inkscape:window-x="-13"
     inkscape:window-y="-13"
     inkscape:window-maximized="1" />
  <metadata
     id="metadata5">
    <rdf:RDF>
      <cc:Work
         rdf:about="">
        <dc:format>image/svg+xml</dc:format>
        <dc:type
           rdf:resource="http://purl.org/dc/dcmitype/StillImage" />
        <dc:title></dc:title>
      </cc:Work>
    </rdf:RDF>
  </metadata>
  <g
     inkscape:label="Layer 1"
     inkscape:groupmode="layer"
     id="layer1"
     transform="translate(-69.580816,-81.372152)">
    <g
       id="g3848">
      <circle
         style="fill:#5a91e4;fill-opacity:1;stroke-width:0.26458332"
         id="path3829"
         cx="87.35424"
         cy="99.145576"
         r="17.773424" />
      <circle
         id="path3827"
         cx="87.35424"
         cy="98.026924"
         r="8.7530775"
         style="fill:#fcc102;fill-opacity:1;stroke-width:0.22006613" />
      <path
         style="fill:#f5f8fc;stroke-width:0.26458338"
         d="m 82.771498,111.13349 c -0.49378,-0.31396 1.38242,-1.46326 2.34408,-1.43592 1.22037,0.0347 1.54952,0.50968 0.7857,1.1338 -0.63644,0.52004 -2.50357,0.70027 -3.12978,0.30212 z m 6.33409,-0.19451 c -0.77895,-0.55084 -0.75172,-0.87377 0.10103,-1.19799 0.55017,-0.20917 0.94153,-0.14605 1.8643,0.30065 0.64237,0.31097 1.12338,0.70094 1.06891,0.86661 -0.16023,0.48731 -2.35711,0.50956 -3.03424,0.0307 z m -9.06069,-0.91374 c -0.33934,-0.21453 -0.32053,-0.30681 0.13229,-0.64907 1.09412,-0.82695 3.30601,-0.83382 3.30601,-0.0103 0,0.79513 -2.47327,1.26941 -3.4383,0.65934 z m 6.99592,-0.0295 c -0.27265,-0.44117 0.34058,-0.94708 0.70557,-0.58209 0.30531,0.30531 0.11423,0.86972 -0.29444,0.86972 -0.12835,0 -0.31335,-0.12943 -0.41113,-0.28763 z m 4.70371,-0.18761 c -0.47548,-0.36595 -0.53394,-0.53173 -0.27781,-0.78786 0.46739,-0.46739 1.99515,-0.39891 2.88972,0.12953 0.92395,0.54579 0.96151,0.75553 0.17311,0.96681 -1.06824,0.28628 -2.17093,0.16414 -2.78502,-0.30848 z m -7.64199,-1.44298 c -0.44406,-0.47295 -0.88627,-1.08357 -0.9827,-1.35694 -0.15498,-0.43941 -0.0751,-0.47784 0.68933,-0.33139 0.90825,0.17401 2.31986,1.48563 2.31986,2.15552 0,0.70315 -1.18389,0.43021 -2.02649,-0.46719 z m 4.67232,0.38023 c 0,-0.6936 1.33033,-1.86338 2.35133,-2.06758 l 0.87698,-0.1754 -0.41824,0.80879 c -0.79792,1.543 -2.81007,2.56995 -2.81007,1.43419 z m -10.48542,-0.16603 c -1.25925,-0.548 -1.29618,-0.88373 -0.13168,-1.1973 1.12281,-0.30234 2.06718,-0.0855 2.64142,0.60635 0.2804,0.33786 0.24819,0.45348 -0.19192,0.68902 -0.69061,0.36961 -1.30267,0.34371 -2.31782,-0.0981 z m 16.10782,0.10828 c -0.79088,-0.31789 -0.75061,-0.57968 0.17311,-1.12533 0.90427,-0.53417 1.45879,-0.55341 2.53887,-0.0881 l 0.79375,0.34195 -1.11394,0.57215 c -1.21417,0.62364 -1.49692,0.65903 -2.39179,0.29933 z m -13.14772,-1.28508 c -0.41913,-0.81052 -0.5756,-2.95207 -0.21374,-2.92537 0.50922,0.0376 1.46701,1.69111 1.49308,2.57765 0.0376,1.27734 -0.69557,1.4766 -1.27934,0.34772 z m 11.1413,0.58777 c -0.56398,-0.56398 0.62955,-3.52778 1.42065,-3.52778 0.35608,0 0.31955,2.02891 -0.0491,2.72937 -0.44445,0.84438 -1.00134,1.16857 -1.37151,0.79841 z m -15.52223,-1.07285 c -0.67118,-0.25221 -1.85208,-1.15417 -1.85208,-1.41461 0,-0.13561 0.52914,-0.24657 1.17587,-0.24657 0.8762,0 1.36506,0.16736 1.91823,0.6567 0.6271,0.55473 0.68074,0.69788 0.34548,0.92199 -0.43135,0.28834 -0.96577,0.31611 -1.5875,0.0825 z m 19.63636,-0.0215 c -0.47961,-0.32018 -0.11055,-1.10332 0.65758,-1.39536 0.77046,-0.29292 2.73085,-0.32611 2.71018,-0.0459 -0.008,0.10914 -0.35556,0.46736 -0.77225,0.79606 -0.8579,0.67674 -2.0896,0.98291 -2.59551,0.64517 z m -17.52105,-0.84922 c -0.2641,-0.63757 -0.26364,-1.03459 0.002,-1.98437 0.18284,-0.65303 0.42158,-1.18733 0.53054,-1.18733 0.32415,0 0.87268,1.56341 0.84838,2.41804 -0.022,0.77344 -0.44852,1.55071 -0.85097,1.55071 -0.11004,0 -0.34865,-0.35867 -0.53023,-0.79704 z m 15.76303,0.04 c -0.37444,-0.72409 -0.39606,-1.01973 -0.13446,-1.8388 0.46971,-1.47066 0.71841,-1.57761 1.16776,-0.50216 0.52908,1.26627 0.50831,1.85097 -0.0921,2.59244 l -0.49504,0.61134 z m -19.81113,-1.58782 c -0.80557,-0.53115 -1.56687,-1.47556 -1.35791,-1.68451 0.0716,-0.0716 0.62863,-0.0391 1.23783,0.0724 1.09919,0.201 2.05287,1.00814 2.05287,1.73743 0,0.52184 -1.05507,0.45345 -1.93279,-0.12527 z m 2.35798,0.0743 c -0.30778,-0.80205 -0.15477,-1.83674 0.40762,-2.75648 0.51735,-0.84608 0.58419,-0.88035 0.77416,-0.39688 0.34983,0.89031 0.26747,2.36389 -0.16676,2.98384 -0.48599,0.69385 -0.79408,0.7453 -1.01502,0.16952 z m 19.30127,-0.16952 c -0.44781,-0.63935 -0.54742,-2.4923 -0.16634,-3.09437 0.18563,-0.29327 0.35771,-0.17781 0.78871,0.52917 0.54907,0.90066 0.69812,1.93871 0.39266,2.73472 -0.22095,0.57578 -0.52904,0.52433 -1.01503,-0.16952 z m 1.44021,0.13295 c 0,-0.28668 0.2296,-0.72902 0.51023,-0.98298 0.53364,-0.48294 2.625092,-1.07106 2.884902,-0.81125 0.2955,0.2955 -1.691762,1.97628 -2.535232,2.14424 -0.73709,0.14677 -0.8599,0.0968 -0.8599,-0.35001 z m -23.75644,-2.38918 c -0.29244,-0.25466 -0.7491,-0.81036 -1.01478,-1.23489 l -0.48306,-0.77187 1.02341,0.16608 c 1.09614,0.17788 2.1376,0.97334 2.35306,1.79724 0.10713,0.4097 -0.009,0.50646 -0.60723,0.50646 -0.40682,0 -0.97895,-0.20836 -1.2714,-0.46302 z m 24.59264,-0.33877 c 0.32304,-0.92666 1.526382,-1.64824 2.550162,-1.5292 l 0.70538,0.082 -1.01832,1.12448 c -0.74116,0.81842 -1.222242,1.12448 -1.767522,1.12448 -0.71922,0 -0.73802,-0.0321 -0.4697,-0.80179 z m -22.51193,-0.21898 c -0.4091,-0.76441 0.004,-2.100667 0.91362,-2.955197 l 0.65378,-0.61419 v 1.35428 c 0,1.042117 -0.14409,1.521797 -0.62511,2.081017 l -0.62511,0.72674 z m 21.19193,-0.17227 c -0.41084,-0.52231 -0.57453,-1.09716 -0.57453,-2.017637 0,-0.70798 0.0925,-1.28724 0.20546,-1.28724 0.30593,0 1.64662,2.156197 1.64662,2.648227 0,0.2341 -0.15818,0.64195 -0.3515,0.90634 -0.33189,0.45388 -0.38358,0.43995 -0.92605,-0.24969 z m -23.31474,-1.703417 c -0.50981,-0.50981 -1.22692,-2.59335 -0.97819,-2.84209 0.23139,-0.23138 1.80987,1.09269 2.05152,1.72088 0.58233,1.513817 -0.0354,2.159117 -1.07333,1.12121 z m 25.12146,-0.31345 c 0,-0.60743 0.25225,-1.06655 0.944882,-1.71979 1.00761,-0.95029 1.59574,-1.158905 1.33239,-0.47262 -0.0883,0.23018 -0.1606,0.63777 -0.1606,0.90574 0,0.60914 -1.2413,2.115327 -1.743312,2.115327 -0.24195,0 -0.37336,-0.291657 -0.37336,-0.828657 z m -23.73008,-0.92568 c -0.31746,-0.82728 1.68307,-3.44751 2.22125,-2.90933 0.30943,0.30943 -0.25963,2.11451 -0.85397,2.70885 -0.74019,0.7402 -1.1378,0.79849 -1.36728,0.20048 z m 22.58081,0.13177 c -0.82639,-0.48037 -1.66949,-3.13991 -0.99538,-3.13991 0.13013,0 0.60638,0.34542 1.05833,0.76761 0.62483,0.58366 0.82173,0.99575 0.82173,1.71977 0,1.01488 -0.11518,1.09983 -0.88468,0.65253 z m -23.54827,-1.7717 c -0.47242,-0.522 -0.62707,-3.07214 -0.20224,-3.3347 0.58275,-0.36016 1.52526,2.03333 1.24321,3.1571 -0.19747,0.78678 -0.45058,0.82996 -1.04097,0.1776 z m 24.59356,0.0653 c -0.30547,-0.796 -0.15642,-1.83405 0.39265,-2.73471 0.659182,-1.08126 1.023852,-0.75859 1.030202,0.91156 0.006,1.55131 -1.021842,2.86818 -1.422852,1.82315 z m -22.65019,-2.17667 c 0,-0.84742 1.48201,-2.16724 2.43357,-2.16724 0.39635,0 0.42368,0.10575 0.18809,0.7276 -0.15161,0.40019 -0.52661,0.9955 -0.83332,1.32292 -0.68674,0.73311 -1.78834,0.805 -1.78834,0.11672 z m 19.75563,-0.3813 c -0.70409,-0.93982 -1.13222,-2.0511 -0.78961,-2.04953 0.35856,0.002 2.03592,1.094 2.38599,1.55385 0.55692,0.73156 0.4169,1.35557 -0.30417,1.35557 -0.42253,0 -0.87214,-0.29918 -1.29221,-0.85989 z m -20.80069,-0.96015 c -0.33436,-0.80721 -0.003,-2.75381 0.52358,-3.0795 0.64833,-0.40069 1.08783,2.90445 0.46856,3.52371 -0.47255,0.47256 -0.64424,0.39569 -0.99214,-0.44421 z m 22.61864,0.1527 c -0.48422,-0.73901 -0.36017,-2.16858 0.26163,-3.01516 0.32522,-0.44279 0.37228,-0.42014 0.65826,0.31688 0.45132,1.16312 0.42598,2.46166 -0.0575,2.94513 -0.38801,0.38801 -0.45991,0.36743 -0.8624,-0.24685 z m -20.77983,-1.58108 c 0,-0.33142 0.18582,-0.86788 0.41294,-1.19213 0.43251,-0.6175 1.92377,-1.51302 2.1473,-1.28949 0.0714,0.0714 -0.10706,0.66531 -0.39658,1.3198 -0.72039,1.62856 -2.16366,2.40356 -2.16366,1.16182 z m 18.69792,0.0614 c -0.60269,-0.47408 -1.39651,-2.29632 -1.12055,-2.57228 0.20003,-0.20002 1.71487,0.74318 2.11803,1.31876 0.50942,0.72731 0.5402,1.79473 0.0517,1.79473 -0.19866,0 -0.67081,-0.24355 -1.04922,-0.54121 z"
         id="path3746-5"
         inkscape:connector-curvature="0"
         sodipodi:nodetypes="ccccccccccccsccccscccccccccscscccscccccccccccccccccsccccssccccccccccccscscccssccccccsccccscccccccscccscccccscccccscccccsccccsssccccscsccssssccssscssccccccccssscscccscsccsccscccscccscccscc" />
    </g>
  </g>
</svg>
